<?xml version="1.0" encoding="iso-8859-1"?>
<!-- Generator: Adobe Illustrator 19.0.0, SVG Export Plug-In . SVG Version: 6.00 Build 0)  -->
<svg version="1.1" id="Layer_1" xmlns="http://www.w3.org/2000/svg" xmlns:xlink="http://www.w3.org/1999/xlink" x="0px" y="0px"
	 viewBox="0 0 512 512" style="enable-background:new 0 0 512 512;" xml:space="preserve">
<rect x="198.19" y="379.87" style="fill:#5B5D6E;" width="115.61" height="82.58"/>
<rect x="198.19" y="379.87" style="fill:#464655;" width="115.61" height="24.774"/>
<path style="fill:#707487;" d="M355.097,487.226H156.903c-4.561,0-8.258-3.697-8.258-8.258v-16.516c0-4.561,3.697-8.258,8.258-8.258
	h198.194c4.561,0,8.258,3.697,8.258,8.258v16.516C363.355,483.529,359.658,487.226,355.097,487.226z"/>
<path style="fill:#5B5D6E;" d="M355.097,487.226H156.903c-4.561,0-8.258-3.697-8.258-8.258l0,0c0-4.561,3.697-8.258,8.258-8.258
	h198.194c4.561,0,8.258,3.697,8.258,8.258l0,0C363.355,483.529,359.658,487.226,355.097,487.226z"/>
<path style="fill:#707487;" d="M495.484,388.129H16.516C7.395,388.129,0,380.734,0,371.613V41.29
	c0-9.122,7.395-16.516,16.516-16.516h478.968c9.122,0,16.516,7.395,16.516,16.516v330.323
	C512,380.734,504.605,388.129,495.484,388.129z"/>
<path style="fill:#FFFFFF;" d="M470.71,355.097H41.29c-4.561,0-8.258-3.697-8.258-8.258V66.065c0-4.561,3.697-8.258,8.258-8.258
	h429.42c4.561,0,8.258,3.697,8.258,8.258v280.774C478.968,351.4,475.27,355.097,470.71,355.097z"/>
<rect x="165.16" y="90.84" style="fill:#E4EAF8;" width="313.81" height="33.03"/>
<path style="fill:#C7CFE2;" d="M470.71,57.806H41.29c-4.561,0-8.258,3.697-8.258,8.258v280.774c0,4.56,3.697,8.258,8.258,8.258
	h123.871V90.839h99.097v33.032h16.516V90.839h82.581v33.032h16.516V90.839h99.097V66.065
	C478.968,61.504,475.271,57.806,470.71,57.806z"/>
<path style="fill:#707487;" d="M74.323,132.129h-8.258c-4.565,0-8.258-3.694-8.258-8.258c0-4.564,3.694-8.258,8.258-8.258h8.258
	c4.565,0,8.258,3.694,8.258,8.258C82.581,128.435,78.887,132.129,74.323,132.129z"/>
<path style="fill:#959CB5;" d="M132.129,132.129h-24.774c-4.565,0-8.258-3.694-8.258-8.258c0-4.564,3.694-8.258,8.258-8.258h24.774
	c4.565,0,8.258,3.694,8.258,8.258C140.387,128.435,136.694,132.129,132.129,132.129z"/>
<path style="fill:#707487;" d="M74.323,165.161h-8.258c-4.565,0-8.258-3.694-8.258-8.258s3.694-8.258,8.258-8.258h8.258
	c4.565,0,8.258,3.694,8.258,8.258S78.887,165.161,74.323,165.161z"/>
<path style="fill:#959CB5;" d="M132.129,165.161h-24.774c-4.565,0-8.258-3.694-8.258-8.258s3.694-8.258,8.258-8.258h24.774
	c4.565,0,8.258,3.694,8.258,8.258S136.694,165.161,132.129,165.161z"/>
<path style="fill:#707487;" d="M74.323,198.194h-8.258c-4.565,0-8.258-3.694-8.258-8.258s3.694-8.258,8.258-8.258h8.258
	c4.565,0,8.258,3.694,8.258,8.258S78.887,198.194,74.323,198.194z"/>
<path style="fill:#959CB5;" d="M132.129,198.194h-24.774c-4.565,0-8.258-3.694-8.258-8.258s3.694-8.258,8.258-8.258h24.774
	c4.565,0,8.258,3.694,8.258,8.258S136.694,198.194,132.129,198.194z"/>
<path style="fill:#707487;" d="M74.323,231.226h-8.258c-4.565,0-8.258-3.694-8.258-8.258c0-4.565,3.694-8.258,8.258-8.258h8.258
	c4.565,0,8.258,3.694,8.258,8.258S78.887,231.226,74.323,231.226z"/>
<path style="fill:#959CB5;" d="M132.129,231.226h-24.774c-4.565,0-8.258-3.694-8.258-8.258c0-4.565,3.694-8.258,8.258-8.258h24.774
	c4.565,0,8.258,3.694,8.258,8.258S136.694,231.226,132.129,231.226z"/>
<path style="fill:#707487;" d="M74.323,264.258h-8.258c-4.565,0-8.258-3.694-8.258-8.258c0-4.565,3.694-8.258,8.258-8.258h8.258
	c4.565,0,8.258,3.694,8.258,8.258C82.581,260.565,78.887,264.258,74.323,264.258z"/>
<path style="fill:#959CB5;" d="M132.129,264.258h-24.774c-4.565,0-8.258-3.694-8.258-8.258c0-4.565,3.694-8.258,8.258-8.258h24.774
	c4.565,0,8.258,3.694,8.258,8.258C140.387,260.565,136.694,264.258,132.129,264.258z"/>
<g>
	<path style="fill:#00C3FF;" d="M445.927,189.935H438.5c-3.484,0-6.589,2.185-7.766,5.46l-14.871,41.29
		c-2.823,7.847-5.161,14.339-7.081,19.726l-21.968-61.016c-1.177-3.274-4.282-5.46-7.766-5.46h-7.435
		c-4.565,0-8.258,3.694-8.258,8.258v82.581c0,4.565,3.694,8.258,8.258,8.258s8.258-3.694,8.258-8.258v-55.911l21.048,58.476
		c0.177,0.871,0.581,1.452,1.097,2.185c1.597,2.266,4.145,3.508,6.766,3.508c1.282,0,2.589-0.298,3.798-0.927
		c1.927-1.008,3.315-2.677,3.984-4.597c0.411-1.145,12.476-34.669,21.105-58.629v55.895c0,4.565,3.694,8.258,8.258,8.258
		s8.258-3.694,8.258-8.258v-82.581C454.185,193.629,450.492,189.935,445.927,189.935z"/>
	<path style="fill:#00C3FF;" d="M351.653,222.968c0-18.218-14.815-33.032-33.032-33.032h-33.032c-4.565,0-8.258,3.694-8.258,8.258
		v82.581c0,4.565,3.694,8.258,8.258,8.258s8.258-3.694,8.258-8.258V256h19.669l14.234,28.468c1.452,2.895,4.363,4.565,7.395,4.565
		c1.242,0,2.5-0.282,3.685-0.871c4.081-2.04,5.734-7,3.694-11.081l-11.734-23.469C342.987,248.75,351.653,236.88,351.653,222.968z
		 M318.621,239.484h-24.774v-33.032h24.774c9.105,0,16.516,7.411,16.516,16.516C335.137,232.073,327.726,239.484,318.621,239.484z"
		/>
	<path style="fill:#00C3FF;" d="M231.226,206.452c7.105,0,13.879,3.065,18.589,8.403c3.032,3.427,8.25,3.75,11.661,0.726
		c3.419-3.016,3.742-8.242,0.726-11.661c-7.847-8.887-19.137-13.984-30.976-13.984c-22.766,0-41.29,18.524-41.29,41.29v16.516
		c0,22.766,18.524,41.29,41.29,41.29c11.839,0,23.129-5.097,30.968-13.976c3.016-3.427,2.694-8.645-0.734-11.661
		c-3.395-3.016-8.621-2.694-11.653,0.734c-4.702,5.331-11.476,8.387-18.581,8.387c-13.661,0-24.774-11.113-24.774-24.774v-16.516
		C206.452,217.565,217.565,206.452,231.226,206.452z"/>
	<path style="fill:#00C3FF;" d="M41.29,57.806h123.871v33.032H33.032V66.065C33.032,61.504,36.73,57.806,41.29,57.806z"/>
</g>
<g>
</g>
<g>
</g>
<g>
</g>
<g>
</g>
<g>
</g>
<g>
</g>
<g>
</g>
<g>
</g>
<g>
</g>
<g>
</g>
<g>
</g>
<g>
</g>
<g>
</g>
<g>
</g>
<g>
</g>
</svg>
